<?xml version="1.0" encoding="UTF-8" standalone="no"?>
<svg
   xmlns:dc="http://purl.org/dc/elements/1.1/"
   xmlns:cc="http://creativecommons.org/ns#"
   xmlns:rdf="http://www.w3.org/1999/02/22-rdf-syntax-ns#"
   xmlns:svg="http://www.w3.org/2000/svg"
   xmlns="http://www.w3.org/2000/svg"
   viewBox="0 0 1333.3333 1066.6667"
   height="1066.6667"
   width="1333.3333"
   xml:space="preserve"
   id="svg2"
   version="1.1"><metadata
     id="metadata8"><rdf:RDF><cc:Work
         rdf:about=""><dc:format>image/svg+xml</dc:format><dc:type
           rdf:resource="http://purl.org/dc/dcmitype/StillImage" /></cc:Work></rdf:RDF></metadata><defs
     id="defs6" /><g
     transform="matrix(1.3333333,0,0,-1.3333333,0,1066.6667)"
     id="g10"><g
       transform="scale(0.1)"
       id="g12"><path
         id="path14"
         style="fill:#f89b0f;fill-opacity:1;fill-rule:nonzero;stroke:none"
         d="m 4724.94,3385 h 215 v 215 h -215 v -215" /><path
         id="path16"
         style="fill:#f89b0f;fill-opacity:1;fill-rule:nonzero;stroke:none"
         d="m 5059.94,3600 v -215 h 215 v 215 h -215" /><path
         id="path18"
         style="fill:#f89b0f;fill-opacity:1;fill-rule:nonzero;stroke:none"
         d="m 4724.94,3045 h 215 v 215 h -215 v -215" /><path
         id="path20"
         style="fill:#f89b0f;fill-opacity:1;fill-rule:nonzero;stroke:none"
         d="m 5059.94,3045 h 215 v 215 h -215 v -215" /><path
         id="path22"
         style="fill:#f89b0f;fill-opacity:1;fill-rule:nonzero;stroke:none"
         d="m 6655,3070 c -44.79,0 -87.18,-10.16 -125.05,-28.29 l -1540.01,1540.01 -792.5,-792.5 V 4110 h -285 V 3504.22 L 3456.12,3047.9 c -34.23,14.22 -71.74,22.1 -111.12,22.1 -160.17,0 -290,-129.84 -290,-290 0,-160.16 129.83,-290 290,-290 160.17,0 290,129.84 290,290 0,10.19 -0.54,20.26 -1.56,30.19 l 1356.5,1356.5 1375.34,-1375.34 c -0.14,-3.77 -0.28,-7.55 -0.28,-11.35 0,-160.16 129.83,-290 290,-290 160.17,0 290,129.84 290,290 0,160.16 -129.83,290 -290,290" /><path
         id="path24"
         style="fill:#f89b0f;fill-opacity:1;fill-rule:nonzero;stroke:none"
         d="m 4109.94,4295 c 0,-41.42 -33.57,-75 -75,-75 -41.41,0 -75,33.58 -75,75 0,41.42 33.59,75 75,75 41.43,0 75,-33.58 75,-75" /><path
         id="path26"
         style="fill:#f89b0f;fill-opacity:1;fill-rule:nonzero;stroke:none"
         d="m 4214.94,4735 c 0,-99.41 -80.58,-180 -180,-180 -99.41,0 -180,80.59 -180,180 0,99.41 80.59,180 180,180 99.42,0 180,-80.59 180,-180" /><path
         id="path28"
         style="fill:#f89b0f;fill-opacity:1;fill-rule:nonzero;stroke:none"
         d="m 4259.94,5285 c 0,-124.26 -100.73,-225 -225,-225 -124.26,0 -225,100.74 -225,225 0,124.26 100.74,225 225,225 124.27,0 225,-100.74 225,-225" /></g></g></svg>